<?xml version="1.0" encoding="UTF-8"?>
<svg width="32px" height="32px" viewBox="0 0 32 32" version="1.1" xmlns="http://www.w3.org/2000/svg">
    <title>Airbnb Icon</title>
    <g stroke="none" stroke-width="1" fill="none" fill-rule="evenodd">
        <path d="M16,31.5 C24.5604136,31.5 31.5,24.5604136 31.5,16 C31.5,7.43958638 24.5604136,0.5 16,0.5 C7.43958638,0.5 0.5,7.43958638 0.5,16 C0.5,24.5604136 7.43958638,31.5 16,31.5 Z" stroke="#FF385C" fill="#FFFFFF"></path>
        <path d="M16.0024377,8.99999999 C14.8839581,10.8672421 14.3569373,12.5372421 14.3569373,14.0865497 C14.3569373,15.6358573 14.8742828,17.0188573 15.9186492,18.2355497 C16.9630156,19.4522421 18.3014373,20.0605916 19.9339123,20.0605916 C21.5663873,20.0605916 22.902809,19.4522421 23.9471754,18.2355497 C24.9915418,17.0188573 25.5185626,15.6358573 25.5185626,14.0865497 C25.5185626,12.5372421 24.9818665,10.8672421 23.9374999,8.99999999 C22.8931335,7.13275786 21.5547118,5.85606573 19.9222368,5.16666666 C18.2897618,4.47726759 16.9533401,4.47726759 15.3208651,5.16666666 C13.6883901,5.85606573 12.3499684,7.13275786 11.305602,8.99999999 C10.2612356,10.8672421 9.73421485,12.5372421 9.73421485,14.0865497 C9.73421485,15.6358573 10.2515603,17.0188573 11.2959267,18.2355497 C12.3402931,19.4522421 13.6787148,20.0605916 15.3111898,20.0605916 C16.9436648,20.0605916 18.2800865,19.4522421 19.3244529,18.2355497 C20.3688193,17.0188573 20.8958401,15.6358573 20.8958401,14.0865497 C20.8958401,12.5372421 20.359144,10.8672421 19.3147776,8.99999999 C18.2704112,7.13275786 16.9319895,5.85606573 15.2995145,5.16666666 L16.0024377,8.99999999 Z" fill="#FF385C" fill-rule="nonzero"></path>
    </g>
</svg>
